<svg id="Livello_1_Immagine" data-name="Livello 1 Immagine" xmlns="http://www.w3.org/2000/svg" xmlns:xlink="http://www.w3.org/1999/xlink" viewBox="0 0 872.14 400.42"><defs><style>.cls-1,.cls-7,.cls-8{fill:none;}.cls-2{fill:#f4e930;}.cls-3{clip-path:url(#clip-path);}.cls-4{fill:#2b2f7b;}.cls-5{clip-path:url(#clip-path-2);}.cls-6{clip-path:url(#clip-path-4);}.cls-7{stroke:#fff;}.cls-7,.cls-8{stroke-width:0.5px;}.cls-8{stroke:#2b2f7b;}.cls-9{fill:#ec2024;}.cls-10{clip-path:url(#clip-path-6);}.cls-11{fill:#fff000;}</style><clipPath id="clip-path" transform="translate(127.6 -14.45)"><rect class="cls-1" width="2378.97" height="426.42"/></clipPath><clipPath id="clip-path-2" transform="translate(127.6 -14.45)"><path class="cls-1" d="M296.77,110.09a23.94,23.94,0,0,1-6.51,0,33.59,33.59,0,0,0-11.06.46c-7,1.76-8.34,14.5-8.34,17.57s-1.76,6.15-14.94,10.55-34.27.43-38.66,0-16.26-1.32-23.72-2.2-36.47,2.63-40.86,2.63S143,137.77,140.82,136s-8.35-5.71-20.21-3.51-4.39,7.9-.88,7.9a91.67,91.67,0,0,1,11,1.32s-4,3.08-.43,4,38.66,4.83,41.29,4.83,30.31.87,51.4,4.83,14.5,15.37,13.18,22.41S212.43,198.39,205,206.3c-6,6.34-22.52,12.64-25.92,13.62-3.08.87-25,15.81-27.24,17.13s-8.35,4.39-23.28,6.59-41.74,20.65-42.18,22-9.22,7.47-11.86,5.72S55.15,277,47.25,279.66s-14.06,9.23-8.79,15.82S60,294.6,62.62,292.4s14.5-5.27,17.57-6.14,6.15-4.4,12.74-9.67,16.26-5.27,28.56-10.55,38.66-7.46,42.17-7.9,8.35-5.28,40.42-14.06,101-61.07,106.75-65.89,20.65-7.91,24.6-7.91,20.65-6.59,24.61-7.47,21.08-1.32,24.6-4.39,15.81-7.48,20.65-7.48,23-.87,23-.87c7,0,7-12.3,7-12.3L604,113.17s-154,20.5-162.84,22.25a10.49,10.49,0,0,0-2.66.81c-.55-.74-1.93-1.92-4.95-3.73-11.72-7-14.06.58-14.06.58-2.05-.3-11.13,2-13.33,4.69s-12.74,2.63-18.45,4.39-22.4,1.76-25,2.64-18.89,3.95-28.55,3.95-18.89.44-21.53-.88,1.32-7.91,4.83-14.49-1.32-17.14-3.95-21.09c-1.51-2.27-5.48-3-9.34-3a37.09,37.09,0,0,0-7.36.75"/></clipPath><clipPath id="clip-path-4" transform="translate(127.6 -14.45)"><path class="cls-1" d="M306.74,119.06a24.07,24.07,0,0,1-6.52,0,33.62,33.62,0,0,0-11.06.47c-7,1.75-8.34,14.49-8.34,17.57s-1.76,6.15-14.94,10.54-34.27.44-38.66,0-16.26-1.32-23.72-2.19-36.47,2.63-40.86,2.63S153,146.73,150.78,145s-8.35-5.71-20.21-3.52-4.39,7.91-.87,7.91a91.7,91.7,0,0,1,11,1.32s-3.95,3.07-.43,3.95,38.66,4.83,41.29,4.83,30.31.88,51.4,4.84,14.5,15.37,13.18,22.4-23.72,20.65-31.19,28.56c-6,6.33-22.52,12.65-25.92,13.62-3.08.87-25,15.81-27.24,17.13s-8.34,4.39-23.28,6.59-41.74,20.65-42.18,22-9.22,7.47-11.86,5.71S65.11,286,57.21,288.63s-14.06,9.23-8.79,15.82,21.53-.88,24.16-3.08,14.5-5.27,17.58-6.15,6.14-4.39,12.73-9.66,16.26-5.28,28.56-10.55,38.66-7.47,42.17-7.9S182,261.83,214,253.05s101-61.07,106.75-65.9,20.65-7.91,24.6-7.91S366,172.65,370,171.77s21.08-1.31,24.6-4.39,15.82-7.47,20.65-7.47,23-.88,23-.88c7,0,7-12.3,7-12.3L614,122.13s-154.06,20.5-162.85,22.26a10.49,10.49,0,0,0-2.66.81c-.55-.74-1.93-1.93-4.95-3.74-11.71-7-14.06.59-14.06.59-2-.3-11.13,2-13.33,4.68s-12.74,2.64-18.45,4.4-22.4,1.75-25,2.63-18.89,4-28.55,4-18.89.44-21.53-.88,1.32-7.91,4.84-14.5-1.33-17.13-4-21.09c-1.51-2.26-5.48-2.94-9.34-2.94a36.16,36.16,0,0,0-7.35.75"/></clipPath><clipPath id="clip-path-6" transform="translate(127.6 -14.45)"><path class="cls-1" d="M316.7,128a24,24,0,0,1-6.52,0,33.53,33.53,0,0,0-11.05.46c-7,1.76-8.35,14.5-8.35,17.57s-1.75,6.15-14.94,10.55-34.26.43-38.66,0-16.25-1.32-23.72-2.2S177,157,172.6,157s-9.66-1.31-11.86-3.07-8.34-5.71-20.21-3.51-4.39,7.91-.87,7.91a92.63,92.63,0,0,1,11,1.31s-3.95,3.08-.44,4,38.66,4.83,41.29,4.83,30.32.87,51.4,4.83,14.5,15.37,13.18,22.41-23.72,20.64-31.19,28.55c-6,6.34-22.51,12.65-25.91,13.62-3.08.88-25.05,15.82-27.24,17.13s-8.35,4.4-23.29,6.59-41.73,20.65-42.17,22S97,291,94.41,289.25,75.08,295,67.17,297.6s-14.06,9.22-8.79,15.81,21.53-.88,24.17-3.07,14.49-5.27,17.57-6.15,6.15-4.4,12.74-9.67,16.25-5.27,28.55-10.54,38.66-7.47,42.18-7.91S191.93,270.8,224,262c0,0,15.24-5,26.21-3.22,0,0,18,3.51,26.36,3.95s22.85-2.19,25.93-3.51,21.52-11.42,23.28-6.59,3.07,14.94,10.1,21.53,20.65,29.43,19.33,33.38-.87,9.23,4.83,9.23,28.12-3.08,31.19-3.08c0,0,17.58,0,16.7-5.71s-7-5.71-11.42-4.83-13.62-2.2-22.41-10.11-13.62-28.11-18.45-37.77S343.79,228,331.93,228.92s-35.59,1.31-27.24-5.71c13.63-11.48,12.6-13.91,26.07-27.09,5.35-5.24,20.64-7.91,24.6-7.91s20.65-6.59,24.6-7.47,21.09-1.32,24.6-4.39,15.82-7.47,20.65-7.47,23-.88,23-.88c7,0,7-12.3,7-12.3l168.7-24.6s-154.06,20.5-162.84,22.26a10.29,10.29,0,0,0-2.67.8c-.54-.73-1.93-1.92-4.95-3.73-11.71-7-14.06.58-14.06.58-2-.29-11.12,2.05-13.32,4.69s-12.74,2.64-18.45,4.39-22.41,1.76-25,2.64-18.89,4-28.56,4-18.89.44-21.52-.88,1.31-7.9,4.83-14.49-1.32-17.14-4-21.09c-1.52-2.27-5.49-3-9.34-3a37,37,0,0,0-7.36.75"/></clipPath></defs><title>logo</title><path class="cls-2" d="M409.94,381.85l-1.38-.91L13.42,119l451-104.55ZM18.65,119.94,408.34,378.27,461.91,17.2Z" transform="translate(127.6 -14.45)"/><polygon class="cls-2" points="485.98 400.42 172.77 75.07 618.6 35.77 487.72 394.68 485.75 393.96 615.49 38.16 177.34 76.78 487.49 398.97 485.98 400.42"/><g class="cls-3"><path class="cls-4" d="M419.49,133.08s2.34-7.62,14.06-.59-1.17,4.69,7.61,2.93S604,113.16,604,113.16L435.31,137.77s0,12.3-7,12.3c0,0-18.16.87-23,.87s-17.13,4.4-20.64,7.47-20.65,3.52-24.6,4.4-20.65,7.46-24.61,7.46-18.89,3.08-24.6,7.91-74.68,57.11-106.75,65.9-36.9,13.62-40.42,14.06-29.87,2.63-42.17,7.9-22,5.28-28.56,10.55-9.66,8.78-12.74,9.66-14.93,4-17.57,6.15-18.89,9.67-24.16,3.08.88-13.18,8.79-15.82,24.6-10.1,27.23-8.34,11.42-4.4,11.86-5.71,27.24-19.77,42.18-22,21.08-5.27,23.28-6.59S176,220.8,179,219.92c3.4-1,19.93-7.28,25.92-13.62,7.47-7.91,29.87-21.53,31.19-28.56s7.91-18.45-13.18-22.4-48.76-4.83-51.4-4.83-37.78-4-41.29-4.84.43-3.95.43-3.95a91.67,91.67,0,0,0-11-1.32c-3.51,0-11-5.71.88-7.91s18,1.76,20.21,3.52,7.47,3.07,11.86,3.07,33.39-3.51,40.86-2.63,19.33,1.75,23.72,2.19,25.48,4.4,38.66,0,14.94-7.46,14.94-10.54,1.31-15.81,8.34-17.57,13.62.44,17.57-.44,14.06-1.76,16.7,2.2,7.47,14.49,3.95,21.08-7.47,13.18-4.83,14.5,11.86.88,21.53.88,25.92-3.08,28.55-4,19.33-.87,25-2.63,16.26-1.76,18.45-4.39,11.28-5,13.33-4.69" transform="translate(127.6 -14.45)"/><path class="cls-4" d="M419.49,133.08s2.34-7.62,14.06-.59-1.17,4.69,7.61,2.93S604,113.16,604,113.16L435.31,137.77s0,12.3-7,12.3c0,0-18.16.87-23,.87s-17.13,4.4-20.64,7.47-20.65,3.52-24.6,4.4-20.65,7.46-24.61,7.46-18.89,3.08-24.6,7.91-74.68,57.11-106.75,65.9-36.9,13.62-40.42,14.06-29.87,2.63-42.17,7.9-22,5.28-28.56,10.55-9.66,8.78-12.74,9.66-14.93,4-17.57,6.15-18.89,9.67-24.16,3.08.88-13.18,8.79-15.82,24.6-10.1,27.23-8.34,11.42-4.4,11.86-5.71,27.24-19.77,42.18-22,21.08-5.27,23.28-6.59S176,220.8,179,219.92c3.4-1,19.93-7.28,25.92-13.62,7.47-7.91,29.87-21.53,31.19-28.56s7.91-18.45-13.18-22.4-48.76-4.83-51.4-4.83-37.78-4-41.29-4.84.43-3.95.43-3.95a91.67,91.67,0,0,0-11-1.32c-3.51,0-11-5.71.88-7.91s18,1.76,20.21,3.52,7.47,3.07,11.86,3.07,33.39-3.51,40.86-2.63,19.33,1.75,23.72,2.19,25.48,4.4,38.66,0,14.94-7.46,14.94-10.54,1.31-15.81,8.34-17.57,13.62.44,17.57-.44,14.06-1.76,16.7,2.2,7.47,14.49,3.95,21.08-7.47,13.18-4.83,14.5,11.86.88,21.53.88,25.92-3.08,28.55-4,19.33-.87,25-2.63,16.26-1.76,18.45-4.39,11.28-5,13.33-4.69" transform="translate(127.6 -14.45)"/></g><g class="cls-5"><rect class="cls-4" x="65.02" y="66.5" width="722.23" height="291.7"/><rect class="cls-4" y="23.44" width="861.93" height="350.57"/></g><g class="cls-3"><path class="cls-2" d="M429.45,142.05s2.35-7.62,14.06-.59-1.17,4.69,7.61,2.93S614,122.13,614,122.13l-168.69,24.6s0,12.3-7,12.3c0,0-18.16.88-23,.88s-17.14,4.39-20.65,7.47S374,170.89,370,171.77s-20.65,7.47-24.6,7.47-18.89,3.08-24.61,7.91S246.11,244.26,214,253.05s-36.9,13.61-40.42,14.05-29.87,2.64-42.17,7.91-22,5.27-28.55,10.54-9.67,8.79-12.74,9.67-14.94,3.95-17.58,6.15S53.69,311,48.42,304.45s.88-13.18,8.79-15.82,24.6-10.1,27.23-8.35,11.43-4.39,11.87-5.71,27.23-19.77,42.17-22,21.09-5.28,23.28-6.59,24.17-16.26,27.24-17.14c3.41-1,19.93-7.27,25.92-13.62,7.47-7.9,29.87-21.52,31.19-28.55s7.91-18.45-13.18-22.41-48.76-4.83-51.4-4.83-37.78-3.95-41.29-4.83.44-3.95.44-3.95a91.93,91.93,0,0,0-11-1.32c-3.51,0-11-5.71.88-7.91s18,1.76,20.21,3.51,7.47,3.08,11.86,3.08,33.39-3.51,40.86-2.64,19.33,1.76,23.72,2.2,25.48,4.39,38.66,0,14.94-7.47,14.94-10.54,1.31-15.82,8.34-17.58,13.62.44,17.58-.43,14.05-1.76,16.69,2.19,7.47,14.5,3.95,21.09-7.46,13.18-4.83,14.5,11.86.87,21.53.87,25.92-3.07,28.55-4,19.33-.88,25-2.63,16.26-1.76,18.45-4.4,11.28-5,13.33-4.68" transform="translate(127.6 -14.45)"/></g><g class="cls-6"><rect class="cls-7" x="74.98" y="75.46" width="722.23" height="291.7"/><rect class="cls-8" x="9.96" y="32.41" width="861.93" height="350.57"/></g><g class="cls-3"><path class="cls-9" d="M330.76,196.12c5.34-5.24,20.65-7.91,24.6-7.91s20.65-6.59,24.6-7.47,21.09-1.32,24.6-4.39,15.82-7.47,20.65-7.47,23-.88,23-.88c7,0,7-12.3,7-12.3l168.7-24.6s-154.06,20.5-162.84,22.25,4.1,4.11-7.62-2.92-14.05.58-14.05.58c-2.05-.29-11.13,2.05-13.33,4.69s-12.74,2.63-18.45,4.39-22.41,1.76-25,2.64-18.89,4-28.56,4-18.89.44-21.53-.88,1.32-7.91,4.84-14.49-1.32-17.14-4-21.09-12.74-3.08-16.69-2.2-10.54-1.32-17.57.44S290.78,143,290.78,146s-1.76,6.15-14.94,10.55-34.26.44-38.66,0-16.25-1.32-23.72-2.2S177,157,172.61,157s-9.67-1.32-11.87-3.08-8.34-5.71-20.2-3.51-4.4,7.9-.88,7.9a92,92,0,0,1,11,1.32s-3.95,3.08-.44,4,38.66,4.83,41.3,4.83,30.31.88,51.4,4.83,14.49,15.38,13.17,22.41-23.72,20.64-31.19,28.55c-6,6.34-22.51,12.65-25.92,13.62-3.07.88-25,15.82-27.23,17.13s-8.35,4.4-23.29,6.59-41.73,20.65-42.17,22S97,291,94.41,289.25,75.08,295,67.17,297.6s-14.06,9.22-8.79,15.81,21.53-.88,24.17-3.07,14.49-5.28,17.57-6.15,6.15-4.4,12.74-9.67,16.25-5.27,28.55-10.54,38.66-7.47,42.18-7.91S191.93,270.8,224,262c0,0,15.23-5,26.22-3.22,0,0,18,3.51,26.35,3.95s22.85-2.19,25.92-3.51,21.53-11.42,23.29-6.59,3.07,14.94,10.1,21.53,20.65,29.43,19.33,33.38-.88,9.23,4.83,9.23,28.12-3.08,31.2-3.08c0,0,17.57,0,16.69-5.71s-7-5.71-11.42-4.83-13.62-2.2-22.41-10.1-13.62-28.12-18.45-37.79S343.79,228,331.93,228.92s-35.59,1.31-27.24-5.72c13.63-11.47,12.6-13.9,26.07-27.08" transform="translate(127.6 -14.45)"/></g><g class="cls-10"><rect class="cls-9" x="53.8" y="60.52" width="715.79" height="320.99"/><path class="cls-11" d="M33.24,346.07c.62,4.7,6.71,16.72,2.1,7.68-2.74-7.84-4.69-13.76-2.1-7.68" transform="translate(127.6 -14.45)"/><path class="cls-11" d="M33.64,343.49c4.15,10.77,6.94,16.5,11.64,31.13-3.75-10.18-8.2-21.43-11.64-31.13" transform="translate(127.6 -14.45)"/><polygon class="cls-11" points="341.7 366.24 341.57 366.52 341.29 345.52 341.7 366.24"/><path class="cls-11" d="M196.22,344.49c1.08,4.63,8.92,15.66,3,7.37-3.73-7.41-6.4-13-3-7.37" transform="translate(127.6 -14.45)"/><path class="cls-11" d="M196.49,341.8c5.52,10.14,9,15.47,15.47,29.42-5-9.65-10.85-20.23-15.47-29.42" transform="translate(127.6 -14.45)"/><polygon class="cls-11" points="513 361.69 512.87 361.97 512.58 340.97 513 361.69"/><path class="cls-4" d="M33.24,349.58c.62,4.71,6.71,16.72,2.1,7.69-2.74-7.84-4.69-13.77-2.1-7.69" transform="translate(127.6 -14.45)"/><path class="cls-4" d="M33.64,347c4.15,10.76,6.94,16.5,11.64,31.13C41.53,368,37.08,356.71,33.64,347" transform="translate(127.6 -14.45)"/><polygon class="cls-4" points="341.7 369.76 341.57 370.03 341.29 349.03 341.7 369.76"/><path class="cls-4" d="M196.22,348c1.08,4.64,8.92,15.67,3,7.38-3.73-7.41-6.4-13.05-3-7.38" transform="translate(127.6 -14.45)"/><path class="cls-4" d="M196.49,345.31c5.52,10.14,9,15.47,15.47,29.42-5-9.64-10.85-20.23-15.47-29.42" transform="translate(127.6 -14.45)"/><polygon class="cls-4" points="513 365.21 512.87 365.48 512.58 344.49 513 365.21"/></g></svg>